<svg xmlns="http://www.w3.org/2000/svg" version="1.1" xmlns:xlink="http://www.w3.org/1999/xlink" xmlns:svgjs="http://svgjs.dev/svgjs" viewBox="0 0 7.305931971273125 6.378955295396098"><g transform="matrix(1,0,0,1,2.2150054811231374,2.237621042727995)"><g><path d=" M -0.9548771860106195 1.7645098231626037 Q -1.008854416555553 1.8466664332600213 -1.117346343935341 1.8587702216512156 L -1.1290680462434342 1.6500991846216353 Q -1.092294537807213 1.6450287726767159 -1.0763869048615236 1.6251052385006413 Q -1.0604792719158342 1.6051817043245666 -1.0621618129169959 1.5752289238896986 Q -1.0636760998180415 1.5482714214983173 -1.0781363332644096 1.5315561096951673 Q -1.0925965667107778 1.5148407978920169 -1.1165587910586723 1.5161868306929462 Q -1.1475099975080358 1.5179254563941467 -1.1628567834533379 1.5478332507151773 Q -1.1782035693986401 1.5777410450362082 -1.1955250102005308 1.6438165146792352 Q -1.2146189642312577 1.713997857780322 -1.2337015237912674 1.7576367844472176 Q -1.2527840833512771 1.801275711114113 -1.2924520949016247 1.8350536456223314 Q -1.3321201064519723 1.86883158013055 -1.3990146494231772 1.8725892550331442 Q -1.466907618408878 1.8764030146357775 -1.5172381599132312 1.8451766380948051 Q -1.5675687014175843 1.8139502615538328 -1.5958944337822976 1.755446818185065 Q -1.624220166147011 1.6969433748162972 -1.628482603349954 1.6210629977146316 Q -1.6353810214547169 1.4982565979316729 -1.582093751074066 1.4216474156140197 Q -1.5288064806934152 1.3450382332963666 -1.4252505986860666 1.3342132944198615 L -1.4133045575778187 1.546878035507424 Q -1.445198105341639 1.5496711719231588 -1.4601353546228522 1.569039408391947 Q -1.4750726039040654 1.5884076448607352 -1.4734461476029423 1.6173619992811075 Q -1.4722122842020906 1.6393273716000107 -1.4584475602131057 1.6525762347024457 Q -1.4446828362241209 1.6658250978048808 -1.4207206118762263 1.6644790650039514 Q -1.4007520915863143 1.6633573710031768 -1.3871442272267285 1.6470685396279336 Q -1.3735363628671424 1.6307797082526903 -1.3643428378158293 1.607227020568885 Q -1.355149312764516 1.5836743328850795 -1.341698308034329 1.537847807032158 Q -1.3224921846035247 1.4696633159600623 -1.302467283729058 1.4249698785786324 Q -1.2824423828545917 1.3802764411972026 -1.2437727973187398 1.346554591389023 Q -1.2051032117828877 1.3128327415808432 -1.1432007988841606 1.3093554901784425 Q -1.0802999599709378 1.305822154076003 -1.028611991194938 1.3344683385306784 Q -0.9769240224189384 1.3631145229853534 -0.9446326283462619 1.4208944145467186 Q -0.9123412342735856 1.4786743061080838 -0.907798373570449 1.5595468132822274 Q -0.9008999554656861 1.682353213065186 -0.9548771860106195 1.7645098231626037 M -1.489591438484799 0.5018665662986624 L -1.3372517801381727 0.5354616328238713 L -1.3777381423608603 0.7190504518569849 L -0.8416197293333105 0.8372792436668547 L -0.8838289154803679 1.0286803528715902 L -1.4199473285079178 0.9104515610617204 L -1.4600029847495128 1.0920873075519286 L -1.6123426430961392 1.0584922410267197 L -1.489591438484799 0.5018665662986624 M -0.590970684378159 0.23924069049849173 L -0.8862634864757863 0.237770646508846 L -0.8963115057229251 0.25621074708365665 L -0.668005498606222 0.3806147949053732 L -0.761787011579516 0.5527224002702724 L -1.3808475308767298 0.21539603983061784 L -1.2329981048116898 -0.055936868627310066 Q -1.1923275507161288 -0.13057537095392446 -1.138193450595267 -0.16826819791217384 Q -1.0840593504744056 -0.20596102487042323 -1.0244828858545527 -0.2076624546807413 Q -0.9649064212347 -0.20936388449105925 -0.9087080194828963 -0.17874134964263666 Q -0.845484817512117 -0.14429099793816136 -0.8165282117471073 -0.08352904452511012 Q -0.7875716059820976 -0.02276709111205888 -0.803739565485045 0.05497348442936001 L -0.48618419794371315 0.04693678450403804 L -0.590970684378159 0.23924069049849173 M -1.0139769093907642 0.19209481474477197 L -0.9675646300111239 0.10691911208969423 Q -0.9484255457308598 0.07179511099481695 -0.9555399041107945 0.04514204541425271 Q -0.9626542624907292 0.01848897983368858 -0.9942658634761189 0.0012638039814509838 Q -1.0241212644067645 -0.015004417656773517 -1.0510529956341528 -0.006333670682277637 Q -1.0779847268615408 0.002337076292218354 -1.0966453340347981 0.03658297735972371 L -1.1430576134144386 0.12175868001480139 L -1.0139769093907642 0.19209481474477197 M -0.6637136677986986 -0.564846112713061 L -0.5810661384613053 -0.4848812085711518 L -0.42461306514017855 -0.6465828964051819 L -0.3175306140856431 -0.5429761945169691 L -0.4739836874067698 -0.38127450668293894 L -0.38271206805156166 -0.29296543863056956 L -0.20539858495428465 -0.4762273515091371 L -0.09256674055453917 -0.3670578736806175 L -0.40616823418933107 -0.04293582384440595 L -0.9128335227359587 -0.5331554535839366 L -0.5992320291011669 -0.8572775034201481 L -0.4864001847014215 -0.7481080255916285 L -0.6637136677986986 -0.564846112713061 M 0.33694361222497227 -0.7767847023645558 L 0.11899904447035814 -0.6543095400407017 L 0.14221004484062963 -0.5354388142003533 L -0.03737627898917243 -0.43451928044549765 L -0.1587092210906975 -1.1750274283824313 L 0.038312668159473706 -1.2857449751231955 L 0.606867863293467 -0.7965558602748102 L 0.4264097611926465 -0.695146425870659 L 0.33694361222497227 -0.7767847023645558 M 0.22074137955075546 -0.8835463112018489 L 0.04278888291399788 -1.0450793076476053 L 0.08910286062696851 -0.8095713131582409 L 0.22074137955075546 -0.8835463112018489 M 1.4198988686832492 -1.6502837957312033 L 1.5182594784511563 -0.9521790826357497 L 1.3241764660161084 -0.9248334379343174 L 1.2699037323994902 -1.3100288044508157 L 1.1924772790066114 -0.9062774647440597 L 1.0300812890099385 -0.8833964150959225 L 0.8427005931463777 -1.2528669481803456 L 0.8973918825492423 -0.8647009233102494 L 0.7033088701141942 -0.8373552786088171 L 0.6049482603462872 -1.5354599917042706 L 0.8396302702805035 -1.5685258988177373 L 1.078798629843052 -1.1397001815570307 L 1.1862070782002323 -1.6173574072131522 L 1.4198988686832492 -1.6502837957312033 M 2.1742657228730433 -1.254657920370025 L 2.1427640474602665 -1.0947309231300715 L 1.6983043557443223 -1.182278524123863 L 1.7298060311570993 -1.3422055213638164 L 2.1742657228730433 -1.254657920370025 M 2.3437314028818124 -0.801333500417846 Q 2.2991014237062073 -0.8889201144566651 2.342329919255651 -0.9891613094442135 L 2.529406039889396 -0.8959758755576428 Q 2.515594400215224 -0.8615195465379859 2.5250216438323028 -0.837831425511103 Q 2.534448887449382 -0.8141433044842202 2.5613019191192974 -0.800767404883277 Q 2.5854696476222214 -0.7887290952424282 2.607153070916763 -0.79301035139334 Q 2.628836494211305 -0.7972916075442518 2.6395372138920594 -0.8187740328801842 Q 2.653358976813034 -0.8465221656057637 2.634980722639317 -0.8746689198329609 Q 2.6166024684655995 -0.9028156740601582 2.5677840295681094 -0.9505939120311426 Q 2.516276913088027 -1.0019458053935806 2.4878211796029888 -1.0401396691916895 Q 2.4593654461179515 -1.0783335329897985 2.449673090645845 -1.1295249213808387 Q 2.439980735173738 -1.180716309771879 2.4698535776158446 -1.240688080501357 Q 2.5001722833779825 -1.3015549522864989 2.552230090292078 -1.329808000605127 Q 2.604287897206174 -1.3580610489237546 2.669140543546791 -1.3536867761134646 Q 2.733993189887408 -1.3493125033031745 2.802020870117861 -1.3154268909807851 Q 2.9121182999645145 -1.260585702616918 2.952271086654 -1.176346437893936 Q 2.9924238733434856 -1.0921071731709535 2.950529593338535 -0.9967873467817557 L 2.7598730684821344 -1.0917562339484523 Q 2.7732455936674767 -1.120845331049727 2.7638200372581982 -1.1434154193609303 Q 2.7543944808489202 -1.1659855076721335 2.7284365502346684 -1.1789155439530452 Q 2.7087443270100637 -1.188724536993737 2.690416689070361 -1.183330309750547 Q 2.6720890511306585 -1.1779360825073573 2.661388331449904 -1.1564536571714248 Q 2.652471065049275 -1.1385516360581476 2.6598801132716092 -1.1186617892905344 Q 2.667289161493943 -1.0987719425229212 2.6831949209138815 -1.0791185250777278 Q 2.69910068033382 -1.0594651076325343 2.73224641471819 -1.025079641340498 Q 2.781963329086945 -0.9746194746181227 2.8108683003076154 -0.9350846464443184 Q 2.8397732715282853 -0.8955498182705142 2.8499114903204235 -0.8452535309351379 Q 2.8600497091125616 -0.7949572435997615 2.832406183270612 -0.7394609781486027 Q 2.8043167941086313 -0.6830696116417799 2.7538279448536485 -0.6523592534395777 Q 2.703339095598665 -0.6216488952373754 2.637150546505754 -0.6222198321649943 Q 2.570961997412843 -0.6227907690926133 2.498458811904071 -0.65890569801516 Q 2.3883613820574174 -0.713746886379027 2.3437314028818124 -0.801333500417846 M 2.9856471647359353 -0.4011485083932331 Q 2.958806164807137 -0.492421783358155 2.9818010512335893 -0.58531815141544 Q 3.004795937660042 -0.6782145194727248 3.077500573355834 -0.7525787309480184 Q 3.150205209051626 -0.8269429424233121 3.242559023488689 -0.8520282560335604 Q 3.334912837925752 -0.8771135696438087 3.426419018641673 -0.8519815404622009 Q 3.5179251993575944 -0.826849511280593 3.5887142083581143 -0.7576402907624835 Q 3.6602182578535887 -0.6877319872088377 3.687051279052678 -0.5971657740091614 Q 3.7138843002517676 -0.5065995608094851 3.6905318935778375 -0.4140527342699684 Q 3.6671794869039074 -0.32150590773045173 3.594474851208116 -0.24714169625515808 Q 3.521770215512324 -0.17277748477986443 3.429773921322738 -0.1473426296518479 Q 3.3377776271331525 -0.12190777452383134 3.245921904899463 -0.1466822834579618 Q 3.154066182665774 -0.17145679239209227 3.083277173665254 -0.2406660129102018 Q 3.012488164664734 -0.30987523342831125 2.9856471647359353 -0.4011485083932331 M 3.3294976535263134 -0.32299902753367776 Q 3.3948569837981317 -0.3276258997406244 3.4521817927121212 -0.38625922032691357 Q 3.510904767697184 -0.4463226219031123 3.5137060333901706 -0.5114121979542535 Q 3.5165072990831576 -0.5765017740053947 3.4628792619615516 -0.6289330016706292 Q 3.4085361843449906 -0.6820633123714002 3.3438839158384184 -0.6774444188941627 Q 3.279231647331846 -0.6728255254169252 3.2205086723467833 -0.6127621238407265 Q 3.162484780397257 -0.5534137627594826 3.159325994456793 -0.48867372822610955 Q 3.1561672085163286 -0.4239336936927366 3.2105102861328896 -0.3708033829919657 Q 3.2641383232544956 -0.31837215532673113 3.3294976535263134 -0.32299902753367776 M 3.7016363519881126 0.6993089342357989 L 3.615686727669985 0.5231593895881537 L 3.8553299350380508 0.1158166184943901 L 3.501233401409621 0.28859290411348343 L 3.4152837770914934 0.11244335946583829 L 4.048882904523074 -0.19671217698456983 L 4.134832528841202 -0.02056263233692468 L 3.8906957106402884 0.38897273121393405 L 4.249285855101566 0.21400385313774561 L 4.335235479419693 0.39015339778539077 L 3.7016363519881126 0.6993089342357989 M 4.453843294441335 0.8886788223985541 L 3.764746805318724 1.037578213528576 L 3.7233506625364767 0.8459996151342046 L 4.412447151659088 0.6971002240041828 L 4.453843294441335 0.8886788223985541 M 4.34383132132456 1.21407780283553 Q 4.424134289898925 1.259749820944483 4.467470466315405 1.3409423440830068 Q 4.510806642731884 1.4221348672215306 4.508014985849694 1.526097392449865 Q 4.5044717290376814 1.6580498283165976 4.431581275691578 1.7461249769738634 Q 4.358690822345475 1.834200125631129 4.237036508580422 1.8569427715272022 L 4.242700350908713 1.6460188020735615 Q 4.283195951773088 1.6280993626115356 4.305087620382208 1.5951751337593894 Q 4.326979288991327 1.5622509049072433 4.328160374595331 1.5182667596183324 Q 4.32998568871061 1.4502912623536521 4.282590300539019 1.408503977444673 Q 4.235194912367428 1.366716692535694 4.1542240994492055 1.3645424213101411 Q 4.0722536468653265 1.3623413072299522 4.022683987468183 1.4015248352391951 Q 3.9731143280710386 1.4407083632484383 3.9712890139557597 1.5086838605131185 Q 3.9701079283517555 1.5526680058020295 3.9902011257002328 1.5867196345489065 Q 4.01029432304871 1.6207712632957838 4.0497698954369 1.6408381311287261 L 4.044106053108608 1.8517621005823668 Q 3.923847567784651 1.822523483864272 3.855788828273109 1.7306634927032665 Q 3.787730088761567 1.6388035015422608 3.7912733455735785 1.5068510656755283 Q 3.79406500245577 1.4028885404471936 3.8416960356140826 1.3241387170805872 Q 3.889327068772395 1.2453888937139808 3.9719653657001315 1.2040922609107694 Q 4.054603662627868 1.162795628107558 4.15956582752186 1.1656141278443855 Q 4.263528352750194 1.1684057847265767 4.34383132132456 1.21407780283553" fill="#ffffff" fill-rule="nonzero"></path></g><g clip-path="url(&quot;#SvgjsClipPath1001&quot;)"><g clip-path="url(&quot;#SvgjsClipPath10000d60202c-b53f-4d08-8736-95fc61244b83&quot;)"><path d=" M 2.463488110162448 0.09598491757077598 L 0.09598491757077598 0.09598491757077598 L 0.09598491757077598 2.463488110162448 L 2.463488110162448 2.463488110162448 Z M 0 0 L 0 2.559473027733224 L 2.559473027733224 2.559473027733224 L 2.559473027733224 0 Z" fill="#ffffff" transform="matrix(1,0,0,1,0,0)" fill-rule="evenodd"></path></g><g clip-path="url(&quot;#SvgjsClipPath10000d60202c-b53f-4d08-8736-95fc61244b83&quot;)"><path d=" M 2.7834186393746547 0.4159154467829827 L 0.4159154467829827 0.4159154467829827 L 0.4159154467829827 2.7834186393746547 L 2.7834186393746547 2.7834186393746547 Z M 0.3199305292122068 0.3199305292122068 L 0.3199305292122068 2.8794035569454306 L 2.8794035569454306 2.8794035569454306 L 2.8794035569454306 0.3199305292122068 Z" fill="#ffffff" transform="matrix(1,0,0,1,0,0)" fill-rule="evenodd"></path></g><path d=" M 1.7739688357070498 1.8409084821092931 C 1.7457779538881395 1.9005682552609402 1.707753043527749 1.9520330046280203 1.6598941046258782 1.995302730210534 C 1.6120351657240073 2.038572455793047 1.555653402086187 2.07200815283408 1.4907488137124172 2.0956098213336327 C 1.4258442253386474 2.1192114898331855 1.356022622694137 2.131012324082962 1.2812840057788868 2.131012324082962 C 1.2288358535576585 2.131012324082962 1.1763877013364303 2.1169168831735066 1.123939549115202 2.0887260013545967 C 1.0714913968939739 2.0605351195356865 1.0210100503810415 2.01562638919626 0.9724955095764055 1.9539998103363163 L 1.1180391319903138 1.668812982633388 C 1.1272175586290287 1.685858632105287 1.1409851985871013 1.703232082528569 1.1593420518645312 1.7209333339032336 C 1.177698905141961 1.738634585277898 1.1983503650790697 1.7540412299928838 1.221296431675857 1.7671532680481907 C 1.2442424982726443 1.780265306103498 1.2671885648694317 1.791082737499126 1.290134631466219 1.799605562235076 C 1.3130806980630063 1.8081283869710254 1.333732158000115 1.8123897993390004 1.352089011277545 1.8123897993390004 C 1.3678234569439134 1.8123897993390004 1.3842135045130473 1.8097673917279389 1.4012591539849464 1.804522576505816 C 1.4183048034568455 1.799277761283693 1.4340392491232141 1.791410538450509 1.4484624909840518 1.7809209080062631 C 1.4628857328448897 1.7704312775620177 1.4743587661432833 1.7583026423608583 1.482881590879233 1.744535002402786 C 1.4914044156151824 1.7307673624447135 1.4956658279831574 1.7147051158269626 1.4956658279831574 1.6963482625495327 C 1.4956658279831574 1.6648793712167957 1.4855039984902945 1.6357050865437375 1.4651803395045684 1.608825408530358 C 1.4448566805188423 1.5819457305169786 1.4196160072623762 1.5563772563091298 1.3894583197351702 1.5321199859068118 C 1.359300632207964 1.5078627155044937 1.3265205370696962 1.4832776441507929 1.291118034320367 1.4583647718457096 C 1.255715531571038 1.4334518995406262 1.223263237384153 1.407227823430012 1.1937611517597122 1.3796925435138672 C 1.1642590661352712 1.3521572635977224 1.1390183928788051 1.3213439741677506 1.1180391319903138 1.2872526752239524 C 1.0970598711018225 1.2531613762801541 1.086570240657577 1.2151364659197637 1.086570240657577 1.173177944142781 C 1.086570240657577 1.1049953462551843 1.1068938996433029 1.041401961686945 1.1475412176147548 0.9823977904380632 C 1.1881885355862067 0.9233936191891816 1.2389976830505216 0.8725844717248668 1.2999686600076994 0.8299703480451188 C 1.3609396369648772 0.7873562243653707 1.4274832300955604 0.753592726372955 1.4995994393997494 0.7286798540678717 C 1.5717156487039383 0.7037669817627882 1.6398982465915348 0.6913105456102465 1.7041472330625396 0.6913105456102465 C 1.7395497358118686 0.6913105456102465 1.7729854328529018 0.6955719579782212 1.8044543241856386 0.7040947827141708 C 1.8359232155183753 0.7126176074501205 1.8631306944831376 0.7263852474081929 1.886076761079925 0.7453977025883882 C 1.9090228276767123 0.7644101577685833 1.9273796809541421 0.7883396272195187 1.941147320912215 0.8171861109411942 C 1.954914960870287 0.8460325946628697 1.9617987808493234 0.8820906993149643 1.9617987808493234 0.9253604248974776 C 1.9617987808493234 0.9437172781749076 1.9601597760924099 0.9620741314523373 1.9568817665785834 0.9804309847297672 C 1.9536037570647564 0.9987878380071971 1.9506535485023124 1.0184558950901577 1.948031140891251 1.039435155978649 L 1.6628443131883222 1.1220409957270836 C 1.6654667207993836 1.1115513652828377 1.6677613274590626 1.1010617348385923 1.6697281331673586 1.0905721043943464 C 1.6716949388756546 1.080082473950101 1.6726783417298026 1.0695928435058553 1.6726783417298026 1.0591032130616096 C 1.6726783417298026 1.0197670988956884 1.6657945217507664 0.9912484161253955 1.652026881792694 0.9735471647507309 C 1.6382592418346216 0.9558459133760665 1.6202301895085744 0.9469952876887342 1.5979397248145524 0.9469952876887342 C 1.5874500943703067 0.9469952876887342 1.5746658572663823 0.9509288991053263 1.559587013502779 0.9587961219385105 C 1.544508169739176 0.9666633447716948 1.5294293259755731 0.9768251742645577 1.5143504822119698 0.9892816104170994 C 1.4992716384483669 1.001738046569641 1.4864874013444425 1.0164890893818617 1.4759977709001966 1.0335347388537608 C 1.4655081404559511 1.05058038832566 1.4602633252338282 1.0689372416030898 1.4602633252338282 1.0886052986860504 C 1.4602633252338282 1.1200741900187874 1.4691139509211606 1.1462982661294014 1.486815202295825 1.1672775270178928 C 1.5045164536704896 1.1882567879063841 1.526479117413129 1.2079248449893447 1.552703193523743 1.2262816982667746 C 1.578927269634357 1.2446385515442044 1.60744595240465 1.263323205773017 1.6382592418346216 1.2823356609532124 C 1.669072531264593 1.3013481161334075 1.6975912140348859 1.325933187487108 1.7238152901455002 1.3560908750143144 C 1.7500393662561144 1.3862485625415206 1.7720020299987533 1.4239456719505286 1.7897032813734182 1.469182203241338 C 1.8074045327480825 1.5144187345321474 1.816255158435415 1.5717839010241157 1.816255158435415 1.6412777027172432 C 1.816255158435415 1.7147051158269626 1.8021597175259596 1.781248708957646 1.7739688357070498 1.8409084821092931" fill="#ffffff" transform="matrix(1,0,0,1,0,0)" fill-rule="nonzero"></path></g><g><path d=" M -0.7182985634107677 1.439701778472715 A 2.1580003418834828 2.1580003418834828 0 0 1 3.597702120356198 1.439701778472715 A 2.1580003418834828 2.1580003418834828 0 0 1 -0.7182985634107677 1.439701778472715 Z M -0.6682985634107674 1.4397017784727155 A 2.108000341883483 2.108000341883483 0 0 0 3.5477021203561985 1.4397017784727155 A 2.108000341883483 2.108000341883483 0 0 0 -0.6682985634107674 1.4397017784727155 Z" fill="#ffffff" fill-rule="nonzero"></path></g><g transform="matrix(-0.5339377901617649,-0.8455237644425916,0.8455237644425916,-0.5339377901617649,-3.747706885586059,3.017815524891337)"><g clip-path="url(&quot;#SvgjsClipPath1002&quot;)"><path d=" M -1.0421265111779183 2.6409100222991357 C -0.9869547608330906 2.6409100222991357 -0.9412545794537803 2.595307611954308 -0.9412545794537803 2.5400380905749977 C -0.9412545794537803 2.484866562437067 -0.9869547608330906 2.439166492161205 -1.042224282212401 2.439166492161205 C -1.097396143660677 2.439166492161205 -1.142998442902056 2.484866562437067 -1.142998442902056 2.5400380905749977 C -1.142998442902056 2.595307611954308 -1.0972984837296424 2.6409100222991357 -1.0421265111779183 2.6409100222991357 Z M -1.0421265111779183 2.621088056092239 C -1.0870453020055044 2.621088056092239 -1.123077927936539 2.584957214712929 -1.123077927936539 2.5400380905749977 C -1.123077927936539 2.4951200774715496 -1.087142961936539 2.459087007126722 -1.042224282212401 2.459087007126722 C -0.99730515807447 2.459087007126722 -0.9611754277296424 2.4951200774715496 -0.9610776566951597 2.5400380905749977 C -0.9610776566951597 2.584957214712929 -0.9972073870399872 2.621088056092239 -1.0421265111779183 2.621088056092239 Z" fill="#ffffff" transform="matrix(1,0,0,1,0,0)" fill-rule="nonzero"></path></g></g><g transform="matrix(0.5339377901617649,-0.8455237644425916,-0.8455237644425916,-0.5339377901617649,3.976826617457467,7.214705121222383)"><g clip-path="url(&quot;#SvgjsClipPath1003&quot;)"><path d=" M 3.9215300681233494 2.640910022299136 C 3.976701818468177 2.640910022299136 4.022401999847487 2.5953076119543086 4.022401999847487 2.540038090574998 C 4.022401999847487 2.4848665624370674 3.976701818468177 2.4391664921612053 3.9214322970888666 2.4391664921612053 C 3.8662604356405907 2.4391664921612053 3.8206581363992114 2.4848665624370674 3.8206581363992114 2.540038090574998 C 3.8206581363992114 2.5953076119543086 3.8663580955716252 2.640910022299136 3.9215300681233494 2.640910022299136 Z M 3.9215300681233494 2.6210880560922396 C 3.876611277295763 2.6210880560922396 3.8405786513647286 2.5849572147129294 3.8405786513647286 2.540038090574998 C 3.8405786513647286 2.49512007747155 3.8765136173647283 2.4590870071267226 3.9214322970888666 2.4590870071267226 C 3.9663514212267974 2.4590870071267226 4.002481151571625 2.49512007747155 4.002578922606108 2.540038090574998 C 4.002578922606108 2.5849572147129294 3.96644919226128 2.6210880560922396 3.9215300681233494 2.6210880560922396 Z" fill="#ffffff" transform="matrix(1,0,0,1,0,0)" fill-rule="nonzero"></path></g></g></g><defs><clipPath id="SvgjsClipPath1001"><path d=" M 0 0 h 2.8794035569454306 v 2.8794035569454306 h -2.8794035569454306 Z"></path></clipPath><clipPath id="SvgjsClipPath10000d60202c-b53f-4d08-8736-95fc61244b83"><path d=" M 0 0 L 2.8794035569454306 0 L 2.8794035569454306 2.8794035569454306 L 0 2.8794035569454306 Z"></path></clipPath><clipPath id="SvgjsClipPath1002"><path d=" M -1.1976713387641251 2.3806968581612047 h 0.31108965517241377 v 0.3222 h -0.31108965517241377 Z"></path></clipPath><clipPath id="SvgjsClipPath1003"><path d=" M 3.7659852405371423 2.380696858161205 h 0.31108965517241377 v 0.3222 h -0.31108965517241377 Z"></path></clipPath></defs></svg>